<mxfile host="app.diagrams.net" modified="2023-04-01T08:27:40.915Z" agent="Mozilla/5.0 (Macintosh; Intel Mac OS X 10_15_7) AppleWebKit/537.36 (KHTML, like Gecko) Chrome/111.0.0.0 Safari/537.36" etag="2TEHOpq6PR9IIQNHW6sD" version="21.1.2" type="github">
  <diagram id="SaY-n0zUctqi4QyivDOY" name="Page-1">
    <mxGraphModel dx="954" dy="592" grid="1" gridSize="10" guides="1" tooltips="1" connect="1" arrows="1" fold="1" page="1" pageScale="1" pageWidth="827" pageHeight="1169" math="0" shadow="0">
      <root>
        <mxCell id="0" />
        <mxCell id="1" parent="0" />
        <mxCell id="KRyswWftI08bkajd_gHX-9" value="" style="edgeStyle=orthogonalEdgeStyle;rounded=0;orthogonalLoop=1;jettySize=auto;html=1;" parent="1" source="KRyswWftI08bkajd_gHX-1" target="KRyswWftI08bkajd_gHX-8" edge="1">
          <mxGeometry relative="1" as="geometry" />
        </mxCell>
        <mxCell id="KRyswWftI08bkajd_gHX-1" value="听股票server端" style="rhombus;whiteSpace=wrap;html=1;" parent="1" vertex="1">
          <mxGeometry x="110" y="480" width="130" height="80" as="geometry" />
        </mxCell>
        <mxCell id="KRyswWftI08bkajd_gHX-11" value="" style="edgeStyle=orthogonalEdgeStyle;rounded=0;orthogonalLoop=1;jettySize=auto;html=1;" parent="1" source="KRyswWftI08bkajd_gHX-8" target="KRyswWftI08bkajd_gHX-10" edge="1">
          <mxGeometry relative="1" as="geometry">
            <Array as="points" />
          </mxGeometry>
        </mxCell>
        <mxCell id="KRyswWftI08bkajd_gHX-20" value="" style="edgeStyle=none;rounded=0;orthogonalLoop=1;jettySize=auto;html=1;" parent="1" source="KRyswWftI08bkajd_gHX-8" target="KRyswWftI08bkajd_gHX-19" edge="1">
          <mxGeometry relative="1" as="geometry" />
        </mxCell>
        <mxCell id="KRyswWftI08bkajd_gHX-38" value="" style="edgeStyle=none;rounded=0;orthogonalLoop=1;jettySize=auto;html=1;" parent="1" source="KRyswWftI08bkajd_gHX-8" target="KRyswWftI08bkajd_gHX-37" edge="1">
          <mxGeometry relative="1" as="geometry" />
        </mxCell>
        <mxCell id="KRyswWftI08bkajd_gHX-8" value="lnmp+swoole&lt;br&gt;" style="rounded=1;whiteSpace=wrap;html=1;" parent="1" vertex="1">
          <mxGeometry x="340" y="490" width="90" height="60" as="geometry" />
        </mxCell>
        <mxCell id="KRyswWftI08bkajd_gHX-42" value="" style="edgeStyle=none;rounded=0;orthogonalLoop=1;jettySize=auto;html=1;" parent="1" source="KRyswWftI08bkajd_gHX-10" target="KRyswWftI08bkajd_gHX-41" edge="1">
          <mxGeometry relative="1" as="geometry" />
        </mxCell>
        <mxCell id="KRyswWftI08bkajd_gHX-44" value="" style="edgeStyle=none;rounded=0;orthogonalLoop=1;jettySize=auto;html=1;" parent="1" source="KRyswWftI08bkajd_gHX-10" target="KRyswWftI08bkajd_gHX-43" edge="1">
          <mxGeometry relative="1" as="geometry" />
        </mxCell>
        <mxCell id="KRyswWftI08bkajd_gHX-10" value="nginx代理服务器" style="ellipse;whiteSpace=wrap;html=1;rounded=1;" parent="1" vertex="1">
          <mxGeometry x="325" y="750" width="120" height="60" as="geometry" />
        </mxCell>
        <mxCell id="KRyswWftI08bkajd_gHX-22" value="" style="edgeStyle=none;rounded=0;orthogonalLoop=1;jettySize=auto;html=1;" parent="1" source="KRyswWftI08bkajd_gHX-14" target="KRyswWftI08bkajd_gHX-21" edge="1">
          <mxGeometry relative="1" as="geometry" />
        </mxCell>
        <mxCell id="KRyswWftI08bkajd_gHX-34" value="" style="edgeStyle=none;rounded=0;orthogonalLoop=1;jettySize=auto;html=1;" parent="1" source="KRyswWftI08bkajd_gHX-14" target="KRyswWftI08bkajd_gHX-33" edge="1">
          <mxGeometry relative="1" as="geometry" />
        </mxCell>
        <mxCell id="KRyswWftI08bkajd_gHX-14" value="mysql" style="ellipse;whiteSpace=wrap;html=1;rounded=1;" parent="1" vertex="1">
          <mxGeometry x="900" y="490" width="120" height="60" as="geometry" />
        </mxCell>
        <mxCell id="KRyswWftI08bkajd_gHX-48" value="" style="edgeStyle=none;rounded=0;orthogonalLoop=1;jettySize=auto;html=1;" parent="1" source="KRyswWftI08bkajd_gHX-19" target="KRyswWftI08bkajd_gHX-47" edge="1">
          <mxGeometry relative="1" as="geometry" />
        </mxCell>
        <mxCell id="KRyswWftI08bkajd_gHX-19" value="laravels" style="ellipse;whiteSpace=wrap;html=1;rounded=1;" parent="1" vertex="1">
          <mxGeometry x="325" y="350" width="120" height="60" as="geometry" />
        </mxCell>
        <mxCell id="KRyswWftI08bkajd_gHX-24" value="" style="edgeStyle=none;rounded=0;orthogonalLoop=1;jettySize=auto;html=1;" parent="1" source="KRyswWftI08bkajd_gHX-21" target="KRyswWftI08bkajd_gHX-23" edge="1">
          <mxGeometry relative="1" as="geometry" />
        </mxCell>
        <mxCell id="KRyswWftI08bkajd_gHX-26" value="" style="edgeStyle=none;rounded=0;orthogonalLoop=1;jettySize=auto;html=1;exitX=1;exitY=0.5;exitDx=0;exitDy=0;" parent="1" source="KRyswWftI08bkajd_gHX-23" target="KRyswWftI08bkajd_gHX-25" edge="1">
          <mxGeometry relative="1" as="geometry" />
        </mxCell>
        <mxCell id="KRyswWftI08bkajd_gHX-32" value="" style="edgeStyle=none;rounded=0;orthogonalLoop=1;jettySize=auto;html=1;" parent="1" source="KRyswWftI08bkajd_gHX-21" target="KRyswWftI08bkajd_gHX-31" edge="1">
          <mxGeometry relative="1" as="geometry" />
        </mxCell>
        <mxCell id="KRyswWftI08bkajd_gHX-21" value="istock" style="rhombus;whiteSpace=wrap;html=1;rounded=1;" parent="1" vertex="1">
          <mxGeometry x="920" y="350" width="80" height="80" as="geometry" />
        </mxCell>
        <mxCell id="KRyswWftI08bkajd_gHX-28" value="" style="edgeStyle=none;rounded=0;orthogonalLoop=1;jettySize=auto;html=1;" parent="1" source="KRyswWftI08bkajd_gHX-23" target="KRyswWftI08bkajd_gHX-27" edge="1">
          <mxGeometry relative="1" as="geometry" />
        </mxCell>
        <mxCell id="KRyswWftI08bkajd_gHX-23" value="master" style="rhombus;whiteSpace=wrap;html=1;rounded=1;" parent="1" vertex="1">
          <mxGeometry x="920" y="210" width="80" height="80" as="geometry" />
        </mxCell>
        <mxCell id="KRyswWftI08bkajd_gHX-25" value="slave" style="rhombus;whiteSpace=wrap;html=1;rounded=1;" parent="1" vertex="1">
          <mxGeometry x="1030" y="210" width="80" height="80" as="geometry" />
        </mxCell>
        <mxCell id="KRyswWftI08bkajd_gHX-27" value="slave" style="rhombus;whiteSpace=wrap;html=1;rounded=1;" parent="1" vertex="1">
          <mxGeometry x="920" y="100" width="80" height="80" as="geometry" />
        </mxCell>
        <mxCell id="KRyswWftI08bkajd_gHX-31" value="master" style="rhombus;whiteSpace=wrap;html=1;rounded=1;" parent="1" vertex="1">
          <mxGeometry x="1370" y="350" width="80" height="80" as="geometry" />
        </mxCell>
        <mxCell id="KRyswWftI08bkajd_gHX-36" value="" style="edgeStyle=none;rounded=0;orthogonalLoop=1;jettySize=auto;html=1;" parent="1" source="KRyswWftI08bkajd_gHX-33" target="KRyswWftI08bkajd_gHX-35" edge="1">
          <mxGeometry relative="1" as="geometry" />
        </mxCell>
        <mxCell id="KRyswWftI08bkajd_gHX-33" value="crm后台管理系统" style="rhombus;whiteSpace=wrap;html=1;rounded=1;" parent="1" vertex="1">
          <mxGeometry x="920" y="700" width="80" height="80" as="geometry" />
        </mxCell>
        <mxCell id="KRyswWftI08bkajd_gHX-35" value="master" style="rhombus;whiteSpace=wrap;html=1;rounded=1;" parent="1" vertex="1">
          <mxGeometry x="920" y="840" width="80" height="80" as="geometry" />
        </mxCell>
        <mxCell id="KRyswWftI08bkajd_gHX-37" value="DNS" style="whiteSpace=wrap;html=1;rounded=1;" parent="1" vertex="1">
          <mxGeometry x="325" y="620" width="120" height="60" as="geometry" />
        </mxCell>
        <mxCell id="KRyswWftI08bkajd_gHX-39" value="dns-server&lt;br&gt;api.tinggupiao.com.cn&lt;br&gt;182.340.38.77" style="whiteSpace=wrap;html=1;rounded=1;" parent="1" vertex="1">
          <mxGeometry x="525" y="620" width="120" height="60" as="geometry" />
        </mxCell>
        <mxCell id="KRyswWftI08bkajd_gHX-41" value="nginx-1" style="ellipse;whiteSpace=wrap;html=1;rounded=1;" parent="1" vertex="1">
          <mxGeometry x="200" y="850" width="120" height="60" as="geometry" />
        </mxCell>
        <mxCell id="KRyswWftI08bkajd_gHX-43" value="&lt;span&gt;nginx-2&lt;/span&gt;" style="ellipse;whiteSpace=wrap;html=1;rounded=1;" parent="1" vertex="1">
          <mxGeometry x="445" y="850" width="120" height="60" as="geometry" />
        </mxCell>
        <mxCell id="KRyswWftI08bkajd_gHX-46" value="" style="shape=flexArrow;endArrow=classic;startArrow=classic;html=1;rounded=0;exitX=1;exitY=0.5;exitDx=0;exitDy=0;entryX=0;entryY=0.5;entryDx=0;entryDy=0;" parent="1" source="KRyswWftI08bkajd_gHX-37" target="KRyswWftI08bkajd_gHX-39" edge="1">
          <mxGeometry width="100" height="100" relative="1" as="geometry">
            <mxPoint x="510" y="780" as="sourcePoint" />
            <mxPoint x="610" y="680" as="targetPoint" />
            <Array as="points" />
          </mxGeometry>
        </mxCell>
        <mxCell id="KRyswWftI08bkajd_gHX-47" value="&lt;span&gt;php-cli+swoole&lt;/span&gt;" style="whiteSpace=wrap;html=1;rounded=1;" parent="1" vertex="1">
          <mxGeometry x="325" y="210" width="120" height="60" as="geometry" />
        </mxCell>
        <mxCell id="KRyswWftI08bkajd_gHX-49" value="redis缓存" style="whiteSpace=wrap;html=1;rounded=1;" parent="1" vertex="1">
          <mxGeometry x="570" y="310" width="120" height="60" as="geometry" />
        </mxCell>
        <mxCell id="KRyswWftI08bkajd_gHX-51" value="" style="endArrow=classic;html=1;rounded=0;" parent="1" edge="1">
          <mxGeometry width="50" height="50" relative="1" as="geometry">
            <mxPoint x="430" y="520" as="sourcePoint" />
            <mxPoint x="900" y="520" as="targetPoint" />
          </mxGeometry>
        </mxCell>
        <mxCell id="KRyswWftI08bkajd_gHX-52" value="" style="endArrow=classic;html=1;rounded=0;entryX=0.5;entryY=1;entryDx=0;entryDy=0;" parent="1" target="KRyswWftI08bkajd_gHX-49" edge="1">
          <mxGeometry width="50" height="50" relative="1" as="geometry">
            <mxPoint x="630" y="520" as="sourcePoint" />
            <mxPoint x="660" y="430" as="targetPoint" />
          </mxGeometry>
        </mxCell>
      </root>
    </mxGraphModel>
  </diagram>
</mxfile>
